# xmcd CD database file
#
# Track frame offsets:
#	150
#	19722
#	35532
#	52160
#	85820
#	99897
#	122302
#	141555
#	158997
#	170760
#	187015
#	201557
#	218907
#	234350
#	248050
#	265252
#	285637
#	311387
#
# Disc length: 4420 seconds
#
# Revision: 0
# Processed by: cddbd v1.5.2PL0 Copyright (c) Steve Scherf et al.
# Submitted via: CDex 1.51
#
DISCID=04114212
DTITLE=Red Hot Peppers - My Little Bimbo
DYEAR=1900
DGENRE=Jazz
TTITLE0=You'll Want Me Back Some Time
TTITLE1=Kiss Me Sweet 
TTITLE2=My Little Bimbo
TTITLE3=Blues in Thirds
TTITLE4=Leroy Brown
TTITLE5=The Pearls
TTITLE6=Since My Best Gal Turned Me Down
TTITLE7=Downhearted Blues
TTITLE8=I Jumped Out Of The Frying Pan
TTITLE9=Sweet Lovin' Man
TTITLE10=Tangerine
TTITLE11=Schoolhouse Blues
TTITLE12=Deed I Do
TTITLE13=Weeping Willow Blues
TTITLE14=Little Lawrence
TTITLE15=Nobody Knows
TTITLE16=Streamline Train
TTITLE17=Don't Leave Me Here
EXTD=
EXTT0=
EXTT1=
EXTT2=
EXTT3=
EXTT4=
EXTT5=
EXTT6=
EXTT7=
EXTT8=
EXTT9=
EXTT10=
EXTT11=
EXTT12=
EXTT13=
EXTT14=
EXTT15=
EXTT16=
EXTT17=
PLAYORDER=
